PathFileType	4	(X/Y/Z)	/Users/itak/Documents/Research/Walk-IL/dataset/trc/00141_00007.trc
DataRate	CameraRate	NumFrames	NumMarkers	Units	OrigDataRate	OrigDataStartFrame	OrigNumFrames
100.000000	100.000000	4	53	mm	100.000000	449	599
Frame#	Time	RPSI			LPSI			L3			STRN			T10			C7			CLAV			RBAK			LBAK			LSHO			LUPA			LAEL			LAOL			LWTS			LWPS			LFRA			LIFD			LHPS			LHTS			RSHO			RUPA			RAEL			RAOL			RWTS			RWPS			RFRA			RIFD			RHTS			RHPS			RBHD			LFHD			RFHD			LBHD			LHIP			RHIP			RASI			LASI			LKNE			LTHI			LANK			LTIP			LTOE			LMT1			LMT5			LHEE			RKNE			RTHI			RANK			RTIP			RTOE			RMT1			RMT5			RHEE			
		X1	Y1	Z1	X2	Y2	Z2	X3	Y3	Z3	X4	Y4	Z4	X5	Y5	Z5	X6	Y6	Z6	X7	Y7	Z7	X8	Y8	Z8	X9	Y9	Z9	X10	Y10	Z10	X11	Y11	Z11	X12	Y12	Z12	X13	Y13	Z13	X14	Y14	Z14	X15	Y15	Z15	X16	Y16	Z16	X17	Y17	Z17	X18	Y18	Z18	X19	Y19	Z19	X20	Y20	Z20	X21	Y21	Z21	X22	Y22	Z22	X23	Y23	Z23	X24	Y24	Z24	X25	Y25	Z25	X26	Y26	Z26	X27	Y27	Z27	X28	Y28	Z28	X29	Y29	Z29	X30	Y30	Z30	X31	Y31	Z31	X32	Y32	Z32	X33	Y33	Z33	X34	Y34	Z34	X35	Y35	Z35	X36	Y36	Z36	X37	Y37	Z37	X38	Y38	Z38	X39	Y39	Z39	X40	Y40	Z40	X41	Y41	Z41	X42	Y42	Z42	X43	Y43	Z43	X44	Y44	Z44	X45	Y45	Z45	X46	Y46	Z46	X47	Y47	Z47	X48	Y48	Z48	X49	Y49	Z49	X50	Y50	Z50	X51	Y51	Z51	X52	Y52	Z52	X53	Y53	Z53	

450	4.49	762.3579711914062	1098.553466796875	383.2416687011719	631.2667846679688	1106.74462890625	349.9170532226562	690.6033325195312	1138.536499023438	373.6100158691406	745.5496826171875	1344.83349609375	166.1404418945312	672.9468994140625	1290.313720703125	411.6962890625	660.7470703125	1583.783325195312	372.8350830078125	729.0896606445312	1478.967407226562	201.0805969238281	730.1668701171875	1398.770629882812	450.4917602539062	560.9306030273438	1561.87255859375	343.6867065429688	527.423583984375	1547.866943359375	241.1745910644531	460.4326171875	1416.238037109375	218.1402130126953	464.7673034667969	1208.623779296875	139.8134765625	491.1414794921875	1175.069091796875	218.5623779296875	586.5015258789062	1010.287841796875	-13.72141551971436	536.5274047851562	952.5987548828125	32.6683349609375	485.466552734375	1106.396850585938	85.07110595703125	642.8364868164062	840.3374633789062	-95.03392791748047	560.6690673828125	896.3692626953125	-19.22005271911621	598.0228881835938	935.9110717773438	-61.93386459350586	850.7044677734375	1569.01708984375	375.4876708984375	904.896484375	1497.10595703125	414.8134155273438	922.6396484375	1205.558227539062	445.7589721679688	829.233642578125	1202.79052734375	416.34228515625	958.2750244140625	952.8308715820312	322.1435241699219	963.6543579101562	942.5219116210938	404.3156433105469	945.5281372070312	1131.53369140625	433.0990600585938	953.469482421875	756.4109497070312	307.3702697753906	972.668212890625	843.8489990234375	305.1643676757812	977.9781494140625	840.5518188476562	378.2498474121094	754.9335327148438	1753.501953125	354.3904724121094	632.5784912109375	1824.225219726562	185.204345703125	761.31103515625	1840.384521484375	198.4036712646484	621.7335815429688	1741.362915039062	348.8419799804688	542.0267333984375	1025.623168945312	231.2099914550781	907.7510986328125	1009.017944335938	276.8938903808594	873.53173828125	1087.755981445312	192.820068359375	611.9110107421875	1088.87353515625	135.0184020996094	607.4413452148438	520.4281005859375	246.2745361328125	568.6311645507812	667.0368041992188	247.9929046630859	614.7672729492188	38.41599273681641	424.61083984375	572.046630859375	281.4850769042969	368.4164123535156	741.5145874023438	31.2711124420166	220.3413696289062	746.8646240234375	40.17591857910156	310.0818176269531	629.7485961914062	35.39092636108398	297.713134765625	651.489501953125	45.06201171875	509.7127380371094	925.3460693359375	553.6988525390625	107.1299133300781	928.588623046875	814.866943359375	198.8932495117188	958.5071411132812	30.96898078918457	40.23103713989258	950.6348266601562	422.3287048339844	91.17240905761719	927.5026245117188	110.0818481445312	-173.1891021728516	880.4898071289062	82.21355438232422	-126.9023895263672	991.9971313476562	66.66892242431641	-83.92343139648438	904.4144287109375	20.27954483032227	92.64264678955078	
451	4.5	766.4315795898438	1097.899047851562	375.84716796875	635.1011352539062	1106.084594726562	343.6725463867188	694.73974609375	1137.68798828125	366.828857421875	747.9866333007812	1344.150756835938	159.4175720214844	677.2714233398438	1289.185424804688	405.4493408203125	664.7421875	1582.805908203125	367.333740234375	731.7379760742188	1478.193969726562	194.7913055419922	734.8165283203125	1397.64111328125	444.0165710449219	564.7294311523438	1560.882568359375	338.8936462402344	530.3622436523438	1546.979614257812	236.6888885498047	463.2292785644531	1415.262939453125	214.1569671630859	467.4835815429688	1207.69775390625	135.6219940185547	494.3611450195312	1174.127807617188	214.2228851318359	588.8145751953125	1009.806274414062	-18.75543594360352	538.2136840820312	952.0479736328125	27.57980537414551	488.0942687988281	1105.445922851562	80.65711212158203	645.6106567382812	840.1582641601562	-100.5127105712891	564.1782836914062	895.538818359375	-23.98250579833984	600.4952392578125	935.4585571289062	-67.0460205078125	854.7177124023438	1568.040161132812	368.457763671875	909.2479248046875	1496.039672851562	407.1844177246094	927.4682006835938	1204.398071289062	437.1324157714844	833.84423828125	1201.636352539062	408.3534240722656	962.3250122070312	952.09619140625	312.4820556640625	968.4016723632812	941.5581665039062	394.5888671875	950.3121337890625	1130.44384765625	424.0684509277344	957.5596923828125	755.7116088867188	297.17529296875	976.6858520507812	843.1837768554688	295.0717163085938	982.58203125	839.6723022460938	368.0876159667969	758.5242919921875	1752.52099609375	348.4909057617188	635.3307495117188	1823.528564453125	180.0177307128906	764.1528930664062	1839.630004882812	192.5947723388672	625.2955932617188	1740.455200195312	343.5748901367188	544.7766723632812	1025.09228515625	225.5940856933594	911.0568237304688	1008.222595214844	268.6043090820312	876.111083984375	1086.73828125	184.8849487304688	614.0477294921875	1088.18603515625	128.8696899414062	608.9878540039062	519.7909545898438	241.6512298583984	570.6502685546875	666.5917358398438	242.9556579589844	614.8081665039062	38.88528060913086	424.5482177734375	572.828857421875	281.7980041503906	366.2345275878906	741.5277099609375	31.18276405334473	220.2777557373047	746.7564086914062	40.37037658691406	310.0042114257812	629.7122802734375	35.34292602539062	297.6506042480469	651.5523071289062	46.16387939453125	509.639892578125	926.7577514648438	552.4552001953125	100.3711624145508	931.1468505859375	813.7344360351562	191.1371459960938	959.2254028320312	30.68964767456055	27.12438774108887	951.8880615234375	421.5118713378906	82.77442169189453	923.662353515625	110.4294815063477	-185.4307403564453	877.6685180664062	82.39849090576172	-138.2343902587891	990.136962890625	66.73587036132812	-97.67282867431641	906.1213989257812	20.02678680419922	80.63693237304688	
452	4.51	770.5944213867188	1097.309326171875	368.4188232421875	639.038330078125	1105.465087890625	337.3682250976562	698.956787109375	1136.889038085938	359.999755859375	750.499755859375	1343.524169921875	152.6594543457031	681.6406860351562	1288.087524414062	399.097900390625	668.7733154296875	1581.852172851562	361.8033447265625	734.4644165039062	1477.469970703125	188.4688415527344	739.4953002929688	1396.526000976562	437.4876708984375	568.5790405273438	1559.922119140625	334.0915832519531	533.3519897460938	1546.139038085938	232.1624755859375	466.0554809570312	1414.349731445312	210.1398162841797	470.1597900390625	1206.775512695312	131.5245056152344	497.5687255859375	1173.256958007812	209.9919891357422	590.9419555664062	1009.063537597656	-23.51354026794434	539.7155151367188	951.3359375	22.85042381286621	490.5736694335938	1104.406127929688	76.51036834716797	648.0526123046875	839.55126953125	-105.4619979858398	567.4962768554688	894.4469604492188	-28.30436706542969	602.7244873046875	934.6633911132812	-71.79637145996094	858.7510375976562	1567.101928710938	361.4205627441406	913.6139526367188	1495.013793945312	399.5382080078125	932.3370361328125	1203.27734375	428.4316711425781	838.51708984375	1200.501953125	400.3124389648438	966.46875	951.44140625	302.6944274902344	973.21630859375	940.6528930664062	384.7265319824219	955.1504516601562	1129.39990234375	414.9503173828125	961.8028564453125	755.1026000976562	286.8025207519531	980.8264770507812	842.6095581054688	284.8303527832031	987.2947387695312	838.866943359375	357.7730102539062	762.1421508789062	1751.596435546875	342.5894165039062	638.1090087890625	1822.879760742188	174.835693359375	767.01806640625	1838.931640625	186.7938385009766	628.8877563476562	1739.59423828125	338.3043518066406	547.7092895507812	1024.571044921875	219.9072113037109	914.4180297851562	1007.467407226562	260.3001098632812	878.783447265625	1085.809204101562	176.9137573242188	616.3077392578125	1087.529174804688	122.6937866210938	610.609619140625	519.1643676757812	236.9602355957031	572.7523803710938	666.1612548828125	237.8671722412109	614.828857421875	39.42019653320312	424.4416809082031	573.6768798828125	282.1555480957031	363.9908142089844	741.533447265625	31.12515068054199	220.2377471923828	746.6519165039062	40.55973815917969	309.9286193847656	629.6552124023438	35.31646728515625	297.5845336914062	651.5951538085938	47.3491325378418	509.5478515625	928.0183715820312	551.2149047851562	93.45687866210938	933.6862182617188	812.6470947265625	183.2312774658203	959.4906005859375	30.25497627258301	16.04595947265625	952.8510131835938	420.5565185546875	74.72320556640625	919.6378784179688	109.8716812133789	-195.8636932373047	874.6419677734375	81.72067260742188	-147.7973937988281	987.9737548828125	66.27608489990234	-109.3855438232422	907.2756958007812	19.779052734375	70.55658721923828	
453	4.52	774.8523559570312	1096.780395507812	360.9652709960938	643.0791015625	1104.877685546875	331.007080078125	703.2492065429688	1136.135498046875	353.1268615722656	753.0916137695312	1342.958374023438	145.8647003173828	686.0540771484375	1287.032958984375	392.6377563476562	672.8369750976562	1580.92919921875	356.2376403808594	737.2728881835938	1476.80078125	182.1080474853516	744.2041015625	1395.435913085938	430.9068298339844	572.4736938476562	1558.99658203125	329.2744750976562	536.3912963867188	1545.353149414062	227.5820007324219	468.9179992675781	1413.503295898438	206.0670013427734	472.802978515625	1205.850952148438	127.5191421508789	500.7672424316406	1172.460327148438	205.8647918701172	592.88525390625	1008.05810546875	-27.99739646911621	541.1799926757812	950.4373168945312	18.52123069763184	492.913330078125	1103.28369140625	72.62733459472656	650.13232421875	838.5176391601562	-109.8917541503906	570.5225219726562	893.1104736328125	-32.21430587768555	604.688720703125	933.528076171875	-76.18400573730469	862.8043823242188	1566.211181640625	354.3741455078125	917.994140625	1494.038940429688	391.8755798339844	937.2432250976562	1202.208251953125	419.6649475097656	843.2435302734375	1199.403198242188	392.2142333984375	970.6986694335938	950.8799438476562	292.7867431640625	978.092529296875	939.8158569335938	374.7351989746094	960.0394897460938	1128.412353515625	405.7536926269531	966.18310546875	754.5966796875	276.2527770996094	985.07861328125	842.1390991210938	274.4433898925781	992.105224609375	838.1466674804688	347.3093566894531	765.7913818359375	1750.735717773438	336.6852416992188	640.9195556640625	1822.289794921875	169.6555480957031	769.9072875976562	1838.2958984375	181.0006561279297	632.5139770507812	1738.783935546875	333.0352783203125	550.8399658203125	1024.060791015625	214.1553192138672	917.8328247070312	1006.755737304688	251.9767761230469	881.5615234375	1084.989013671875	168.8915863037109	618.6885375976562	1086.90478515625	116.4975128173828	612.3270874023438	518.5450439453125	232.1918334960938	574.9520263671875	665.7420043945312	232.7249450683594	614.8418579101562	40.03251647949219	424.2940368652344	574.5957641601562	282.5684814453125	361.6658630371094	741.5330200195312	31.08875465393066	220.2144012451172	746.5419311523438	40.74466705322266	309.8407592773438	629.5852661132812	35.30521774291992	297.5136413574219	651.6226196289062	48.62696838378906	509.4311218261719	929.126220703125	549.9879760742188	86.38393402099609	936.202392578125	811.6160278320312	175.163330078125	959.392333984375	29.67146682739258	7.019401550292969	953.538818359375	419.4665222167969	66.99124145507812	915.5135498046875	108.2041397094727	-204.5530548095703	871.5015869140625	80.02888488769531	-155.6263732910156	985.5953979492188	65.2041015625	-119.0731964111328	907.948486328125	19.57881736755371	62.42412948608398	
